<svg xmlns="http://www.w3.org/2000/svg" xmlns:xlink="http://www.w3.org/1999/xlink" width="6446730216091423000" height="1144533057743257300"><path fill="white" d="M166575233756060930 916163785658335100L83287616878030460 916163785658335100L83287616878030460 228369272084922240L315686934940921900 228369272084922240Q396287854500306240 228369272084922240 448006777884244500 255740001018629900Q499725701268182800 283110729952337400 524577651465659650 330799607358306400Q549429601663136450 378488484764275500 549429601663136450 439275011598644540L549429601663136450 439275011598644540Q549429601663136450 500061538433013570 524577651465659650 547078741509321100Q499725701268182800 594095944585628700 448342615049075260 620794999189674600Q396959528829967740 647494053793720700 317030283600245000 647494053793720700L317030283600245000 647494053793720700L128961471295014910 647494053793720700L128961471295014910 572266528871628700L314343586281598850 572266528871628700Q369420881313844800 572266528871628700 403172516379336960 556146344959751800Q436924151444829200 540026161047874940 452204742444629100 510304571960352000Q467485333444429060 480582982872829000 467485333444429060 439275011598644540L467485333444429060 439275011598644540Q467485333444429060 397967040324460100 452036823862213760 367070021160029440Q436588314279998400 336173001995598700 402668760632090800 319213225171644900Q368749206984183300 302253448347691140 313000237622275800 302253448347691140L313000237622275800 302253448347691140L166575233756060930 302253448347691140L166575233756060930 916163785658335100ZM313000237622275800 607193594014028500L407034643774890800 607193594014028500L576296574849597900 916163785658335100L479575471378336700 916163785658335100L313000237622275800 607193594014028500ZM756305295198889500 916163785658335100L677047724298828300 916163785658335100L677047724298828300 400317900478275460L756305295198889500 400317900478275460L756305295198889500 916163785658335100ZM717348184078520400 314343586281598850L717348184078520400 314343586281598850Q694175419705197400 314343586281598850 677551480046074400 298559239534552700Q660927540386951400 282774892787506700 660927540386951400 260609639908675970L660927540386951400 260609639908675970Q660927540386951400 238444387029845250 677551480046074400 222660040282799230Q694175419705197400 206875693535753100 717348184078520400 206875693535753100L717348184078520400 206875693535753100Q740520948451843500 206875693535753100 757144888110966500 222660040282799230Q773768827770089500 238444387029845250 773768827770089500 260609639908675970L773768827770089500 260609639908675970Q773768827770089500 282774892787506700 757144888110966500 298559239534552700Q740520948451843500 314343586281598850 717348184078520400 314343586281598850ZM1110949341260180600 926910574932919700L1110949341260180600 926910574932919700Q1041095210975380900 926910574932919700 988536694679365600 893662695614673700Q935978178383350500 860414816296427600 906592426460658300 800635800956550900Q877206674537966100 740856785616674200 877206674537966100 660927540386951400L877206674537966100 660927540386951400Q877206674537966100 580326620827567100 906592426460658300 520211768322859650Q935978178383350500 460096915818152200 988536694679365600 426849036499906100Q1041095210975380900 393601157181660100 1110949341260180600 393601157181660100L1110949341260180600 393601157181660100Q1180803471544980500 393601157181660100 1233361987840995600 426849036499906100Q1285920504137010700 460096915818152200 1315306256059702800 520211768322859650Q1344692007982395100 580326620827567100 1344692007982395100 660927540386951400L1344692007982395100 660927540386951400Q1344692007982395100 740856785616674200 1315306256059702800 800635800956550900Q1285920504137010700 860414816296427600 1233361987840995600 893662695614673700Q1180803471544980500 926910574932919700 1110949341260180600 926910574932919700ZM1110949341260180600 855713095988796900L1110949341260180600 855713095988796900Q1164011613303442000 855713095988796900 1198267004116180200 828510285637504600Q1232522394928918500 801307475286212500 1248978416005626400 756976969528551000Q1265434437082334000 712646463770889700 1265434437082334000 660927540386951400L1265434437082334000 660927540386951400Q1265434437082334000 609208617003013100 1248978416005626400 564542274080521000Q1232522394928918500 519875931158028860 1198267004116180200 492337283641905900Q1164011613303442000 464798636125782900 1110949341260180600 464798636125782900L1110949341260180600 464798636125782900Q1057887069216919300 464798636125782900 1023631678404181000 492337283641905900Q989376287591442600 519875931158028860 972920266514735000 564542274080521000Q956464245438027300 609208617003013100 956464245438027300 660927540386951400L956464245438027300 660927540386951400Q956464245438027300 712646463770889700 972920266514735000 756976969528551000Q989376287591442600 801307475286212500 1023631678404181000 828510285637504600Q1057887069216919300 855713095988796900 1110949341260180600 855713095988796900ZM1954572299315069700 916163785658335100L1954572299315069700 916163785658335100L1742323211142024200 916163785658335100L1742323211142024200 228369272084922240L1963975739930331100 228369272084922240Q2064055215049900000 228369272084922240 2135252693994023000 269509324776691330Q2206450172938145800 310649377468460400 2244399772564022500 387388169632290900Q2282349372189899300 464126961796121340 2282349372189899300 570923180212305600L2282349372189899300 570923180212305600Q2282349372189899300 678391072958151400 2244063935399191600 755801539451643400Q2205778498608484000 833212005945135400 2132565996675376600 874687895801735300Q2059353494742269400 916163785658335100 1954572299315069700 916163785658335100ZM1825610828020054800 302253448347691140L1825610828020054800 842279609395566100L1949198904677777400 842279609395566100Q2034501544544792600 842279609395566100 2090586351071530800 809367567242150900Q2146671157598269000 776455525088735600 2174209805114392000 715668998254366600Q2201748452630515000 654882471419997600 2201748452630515000 570923180212305600L2201748452630515000 570923180212305600Q2201748452630515000 487635563334275140 2174545642279222800 427352792247152260Q2147342831927930400 367070021160029440 2093273048390176800 334661734753860350Q2039203264852423200 302253448347691140 1958602345293038800 302253448347691140L1958602345293038800 302253448347691140L1825610828020054800 302253448347691140ZM2627589977635929000 926910574932919700L2627589977635929000 926910574932919700Q2553034127043498500 926910574932919700 2499132262088160000 893830614197089000Q2445230397132822000 860750653461258400 2416180482374960600 801139556703797000Q2387130567617099000 741528459946335700 2387130567617099000 662270889046274600L2387130567617099000 662270889046274600Q2387130567617099000 583013318146213200 2416180482374960600 522394709894259650Q2445230397132822000 461776101642306000 2497453076264006000 427688629411983040Q2549675755395191000 393601157181660100 2619529885679990300 393601157181660100L2619529885679990300 393601157181660100Q2659830345459683000 393601157181660100 2699123293744882700 407034643774890800Q2738416242030082000 420468130368121540 2770656609853836300 450525556620475260Q2802896977677589500 480582982872829000 2822039696072943600 529951046102951940Q2841182414468297000 579319109333074800 2841182414468297000 651524099771690000L2841182414468297000 651524099771690000L2841182414468297000 685107816254766700L2443551211308668000 685107816254766700L2443551211308668000 616597034629290000L2760581494908913000 616597034629290000Q2760581494908913000 572938203201290240 2743285880920128500 538682812388551900Q2725990266931344000 504427421575813500 2694253654854836000 484613028850798200Q2662517042778328600 464798636125782900 2619529885679990300 464798636125782900L2619529885679990300 464798636125782900Q2572176845438852000 464798636125782900 2537753536043698700 488139319081521300Q2503330226648545000 511480002037259650 2484859182582852600 548757927333474940Q2466388138517160400 586035852629690100 2466388138517160400 628687172563197700L2466388138517160400 628687172563197700L2466388138517160400 674361026980182100Q2466388138517160400 732796693660735700 2486706286989421600 773265072022843400Q2507024435461683000 813733450384950900 2543294849263406000 834723273186873900Q2579565263065129000 855713095988796900 2627589977635929000 855713095988796900L2627589977635929000 855713095988796900Q2658822833965190000 855713095988796900 2684178539909913000 846813411120781600Q2709534245854636000 837913726252766200 2728005289920328700 819946437934320100Q2746476333986021000 801979149615874000 2756551448930944000 775112176429412600L2756551448930944000 775112176429412600L2833122322512359000 796605754978581800Q2821032184578451500 835562866098950800 2792486025567836000 864948618021643000Q2763939866557221000 894334369944335200 2721960220953374700 910622472438627500Q2679980575349528600 926910574932919700 2627589977635929000 926910574932919700ZM3502109954855249000 720034881397166600L3502109954855249000 228369272084922240L3585397571733279000 228369272084922240L3585397571733279000 720034881397166600Q3585397571733279000 785858965703997200 3561217295865464000 831868657285812400Q3537037019997649000 877878348867627500 3493042351404818000 901722787570612100Q3449047682811987500 925567226273596700 3389268667472110600 925567226273596700L3389268667472110600 925567226273596700Q3332848023780541400 925567226273596700 3288853355187711000 904913240636504300Q3244858686594880500 884259254999412100 3219670899232573000 845973818208704600Q3194483111870265300 807688381417997000 3194483111870265300 754961946539566500L3194483111870265300 754961946539566500L3276427380088973000 754961946539566500Q3276427380088973000 784179779879843300 3291036296759111000 805841277011427800Q3305645213429249500 827502774143012400 3331168837956388000 839592912076920000Q3356692462483526000 851683050010827600 3389268667472110600 851683050010827600L3389268667472110600 851683050010827600Q3425203244109003000 851683050010827600 3450391031471310300 836570377593443100Q3475578818833618000 821457705176058500 3488844386844433400 792071953253366300Q3502109954855249000 762686201330674200 3502109954855249000 720034881397166600L3502109954855249000 720034881397166600ZM3893024414718263000 928253923592242700L3893024414718263000 928253923592242700Q3843992188652970500 928253923592242700 3804027566038109000 909614960944135200Q3764062943423248000 890975998296027500 3740554341885094000 855545177406381400Q3717045740346940400 820114356516735500 3717045740346940400 769738781792120300L3717045740346940400 769738781792120300Q3717045740346940400 725408276034458900 3734509272918140000 697701709935920500Q3751972805489340000 669995143837382100 3781190638829616600 654210797090336000Q3810408472169894000 638426450343290000 3845839293059539500 630534276969766900Q3881270113949185500 622642103596243800 3917204690586077700 617940383288613100L3917204690586077700 617940383288613100Q3964221893662385000 611895314321659300 3993607645585078000 608704861255767000Q4022993397507770000 605514408189874700 4036594802683416000 597790153398767100Q4050196207859062000 590065898607659400 4050196207859062000 570923180212305600L4050196207859062000 570923180212305600L4050196207859062000 568236482893659460Q4050196207859062000 518532582498705800 4023161316090185000 490993934982582800Q3996126424321308000 463455287466459840 3941384966453893000 463455287466459840L3941384966453893000 463455287466459840Q3884628485597493000 463455287466459840 3852388117773739500 488307237663936640Q3820147749949986000 513159187861413500 3807050100521586000 541369509707198000L3807050100521586000 541369509707198000L3731822575599494000 514502536520736600Q3751972805489340000 467485333444429060 3785724440554832400 441122116005213760Q3819476075620324400 414758898565998460 3859608616817601000 404180027873829300Q3899741158014877700 393601157181660100 3938698269135247000 393601157181660100L3938698269135247000 393601157181660100Q3963550219332723700 393601157181660100 3995958505738893000 399478307566198500Q4028366792145062000 405355457950736960 4058760055562246700 423490664851598460Q4089153318979431000 441625871752459900 4109303548869277000 478232122719013600Q4129453778759123500 514838373685567360 4129453778759123500 576296574849597900L4129453778759123500 576296574849597900L4129453778759123500 916163785658335100L4050196207859062000 916163785658335100L4050196207859062000 846309655373535400L4046166161881092600 846309655373535400Q4038106069925154300 863101513615073800 4019299188694631400 882244232010427500Q4000492307464108500 901386950405781200 3969259451134847000 914820436999012100Q3938026594805585400 928253923592242700 3893024414718263000 928253923592242700ZM3905114552652170000 857056444648119900L3905114552652170000 857056444648119900Q3952131755728477700 857056444648119900 3984540042134647000 838585400582427600Q4016948328540816000 820114356516735500 4033572268199939000 790896523176458600Q4050196207859062000 761678689836181800 4050196207859062000 729438322012428000L4050196207859062000 729438322012428000L4050196207859062000 656897494408982300Q4045158650386600400 662942563375936000 4028198873562646500 667812202265982200Q4011239096738693000 672681841156028300 3989241762442278000 676208131386751400Q3967244428145862000 679734421617474400 3946590442508770300 682253200353705200Q3925936456871678000 684771979089935900 3913174644608108500 686451164914089700L3913174644608108500 686451164914089700Q3882277625443678000 690481210892059000 3855578570839632000 699380895760074400Q3828879516235586000 708280580628089700 3812591413741293600 725912031781705000Q3796303311247001600 743543482935320300 3796303311247001600 773768827770089500L3796303311247001600 773768827770089500Q3796303311247001600 815076799044273900 3827032411829016600 836066621846197000Q3857761512411032000 857056444648119900 3905114552652170000 857056444648119900ZM4353793004866076000 605850245354705400L4353793004866076000 605850245354705400L4353793004866076000 916163785658335100L4274535433966015000 916163785658335100L4274535433966015000 400317900478275460L4351106307547430400 400317900478275460L4351106307547430400 480918820037659800L4357823050844045300 480918820037659800Q4375958257744907300 441625871752459900 4412900345876291600 417613514467060030Q4449842434007676000 393601157181660100 4508278100688229400 393601157181660100L4508278100688229400 393601157181660100Q4560668698401829400 393601157181660100 4599961646687029000 414926817148413900Q4639254594972230000 436252477115167600 4661084010686230000 479407552795921340Q4682913426400229000 522562628476675000 4682913426400229000 588386712783505500L4682913426400229000 588386712783505500L4682913426400229000 916163785658335100L4603655855500167700 916163785658335100L4603655855500167700 593760107420797800Q4603655855500167700 532973580586428800 4572087162006075400 498886108356105860Q4540518468511983600 464798636125782900 4485441173479737300 464798636125782900L4485441173479737300 464798636125782900Q4447491573853861000 464798636125782900 4417769984766337500 481254657202490560Q4388048395678814700 497710678279198200 4370920700272445400 529279371773290400Q4353793004866076000 560848065267382500 4353793004866076000 605850245354705400ZM5044274215758135000 926910574932919700L5044274215758135000 926910574932919700Q4969718365165705000 926910574932919700 4915816500210366000 893830614197089000Q4861914635255029000 860750653461258400 4832864720497167000 801139556703797000Q4803814805739306000 741528459946335700 4803814805739306000 662270889046274600L4803814805739306000 662270889046274600Q4803814805739306000 583013318146213200 4832864720497167000 522394709894259650Q4861914635255029000 461776101642306000 4914137314386213000 427688629411983040Q4966359993517397000 393601157181660100 5036214123802197000 393601157181660100L5036214123802197000 393601157181660100Q5076514583581890000 393601157181660100 5115807531867089000 407034643774890800Q5155100480152289000 420468130368121540 5187340847976042000 450525556620475260Q5219581215799797000 480582982872829000 5238723934195150000 529951046102951940Q5257866652590504000 579319109333074800 5257866652590504000 651524099771690000L5257866652590504000 651524099771690000L5257866652590504000 685107816254766700L4860235449430875000 685107816254766700L4860235449430875000 616597034629290000L5177265733031120000 616597034629290000Q5177265733031120000 572938203201290240 5159970119042335000 538682812388551900Q5142674505053551000 504427421575813500 5110937892977043000 484613028850798200Q5079201280900535000 464798636125782900 5036214123802197000 464798636125782900L5036214123802197000 464798636125782900Q4988861083561059000 464798636125782900 4954437774165905000 488139319081521300Q4920014464770751000 511480002037259650 4901543420705059000 548757927333474940Q4883072376639367000 586035852629690100 4883072376639367000 628687172563197700L4883072376639367000 628687172563197700L4883072376639367000 674361026980182100Q4883072376639367000 732796693660735700 4903390525111629000 773265072022843400Q4923708673583890000 813733450384950900 4959979087385613000 834723273186873900Q4996249501187336000 855713095988796900 5044274215758135000 855713095988796900L5044274215758135000 855713095988796900Q5075507072087397000 855713095988796900 5100862778032120000 846813411120781600Q5126218483976843000 837913726252766200 5144689528042535000 819946437934320100Q5163160572108228000 801979149615874000 5173235687053150000 775112176429412600L5173235687053150000 775112176429412600L5249806560634566000 796605754978581800Q5237716422700658000 835562866098950800 5209170263690042000 864948618021643000Q5180624104679427000 894334369944335200 5138644459075582000 910622472438627500Q5096664813471736000 926910574932919700 5044274215758135000 926910574932919700ZM5458025602829642000 916163785658335100L5378768031929581000 916163785658335100L5378768031929581000 400317900478275460L5458025602829642000 400317900478275460L5458025602829642000 916163785658335100ZM5419068491709273000 314343586281598850L5419068491709273000 314343586281598850Q5395895727335950000 314343586281598850 5379271787676827000 298559239534552700Q5362647848017704000 282774892787506700 5362647848017704000 260609639908675970L5362647848017704000 260609639908675970Q5362647848017704000 238444387029845250 5379271787676827000 222660040282799230Q5395895727335950000 206875693535753100 5419068491709273000 206875693535753100L5419068491709273000 206875693535753100Q5442241256082596000 206875693535753100 5458865195741719000 222660040282799230Q5475489135400842000 238444387029845250 5475489135400842000 260609639908675970L5475489135400842000 260609639908675970Q5475489135400842000 282774892787506700 5458865195741719000 298559239534552700Q5442241256082596000 314343586281598850 5419068491709273000 314343586281598850ZM5682364828936594000 916163785658335100L5603107258036533000 916163785658335100L5603107258036533000 400317900478275460L5679678131617949000 400317900478275460L5679678131617949000 478232122719013600L5685051526255241000 478232122719013600Q5699156687178134000 439946685928306050 5736098775309518000 416102247225321540Q5773040863440902000 392257808522337000 5819386392187548000 392257808522337000L5819386392187548000 392257808522337000Q5828118158473148000 392257808522337000 5841215807901548000 392593645687167800Q5854313457329948000 392929482851998600 5861030200626563000 393601157181660100L5861030200626563000 393601157181660100L5861030200626563000 474202076741044400Q5857000154648594000 473194565246552100 5842727075143287000 471011623675152100Q5828453995637979000 468828682103752100 5812669648890932000 468828682103752100L5812669648890932000 468828682103752100Q5775055886429886000 468828682103752100 5745670134507194000 484445110268382850Q5716284382584502000 500061538433013570 5699324605760549000 527432267366721150Q5682364828936594000 554802996300428740 5682364828936594000 589730061442828500L5682364828936594000 589730061442828500L5682364828936594000 916163785658335100ZM6164626997633577000 926910574932919700L6164626997633577000 926910574932919700Q6094772867348778000 926910574932919700 6042214351052762000 893662695614673700Q5989655834756747000 860414816296427600 5960270082834055000 800635800956550900Q5930884330911363000 740856785616674200 5930884330911363000 660927540386951400L5930884330911363000 660927540386951400Q5930884330911363000 580326620827567100 5960270082834055000 520211768322859650Q5989655834756747000 460096915818152200 6042214351052762000 426849036499906100Q6094772867348778000 393601157181660100 6164626997633577000 393601157181660100L6164626997633577000 393601157181660100Q6234481127918377000 393601157181660100 6287039644214392000 426849036499906100Q6339598160510408000 460096915818152200 6368983912433100000 520211768322859650Q6398369664355792000 580326620827567100 6398369664355792000 660927540386951400L6398369664355792000 660927540386951400Q6398369664355792000 740856785616674200 6368983912433100000 800635800956550900Q6339598160510408000 860414816296427600 6287039644214392000 893662695614673700Q6234481127918377000 926910574932919700 6164626997633577000 926910574932919700ZM6164626997633577000 855713095988796900L6164626997633577000 855713095988796900Q6217689269676839000 855713095988796900 6251944660489577000 828510285637504600Q6286200051302315000 801307475286212500 6302656072379023000 756976969528551000Q6319112093455731000 712646463770889700 6319112093455731000 660927540386951400L6319112093455731000 660927540386951400Q6319112093455731000 609208617003013100 6302656072379023000 564542274080521000Q6286200051302315000 519875931158028860 6251944660489577000 492337283641905900Q6217689269676839000 464798636125782900 6164626997633577000 464798636125782900L6164626997633577000 464798636125782900Q6111564725590316000 464798636125782900 6077309334777577000 492337283641905900Q6043053943964839000 519875931158028860 6026597922888132000 564542274080521000Q6010141901811424000 609208617003013100 6010141901811424000 660927540386951400L6010141901811424000 660927540386951400Q6010141901811424000 712646463770889700 6026597922888132000 756976969528551000Q6043053943964839000 801307475286212500 6077309334777577000 828510285637504600Q6111564725590316000 855713095988796900 6164626997633577000 855713095988796900Z"/></svg>